<?xml version="1.0" encoding="UTF-8"?>
<svg id="Capa_1" data-name="Capa 1" xmlns="http://www.w3.org/2000/svg" viewBox="0 0 502.54 126.33">
  <defs>
    <style>
      .cls-1 {
        fill: #fff;
      }

      .cls-2 {
        fill: #ec7407;
      }
    </style>
  </defs>
  <g>
    <path class="cls-2" d="M236.08,93.46L242.19,.2h123.19c14.97,1.1,21.64,12.68,20.43,29.28l-4.08,64.4h-20.74l5.03-64.05c-.5-4.97-2.77-8.75-7.86-8.53h-33.94l-4.36,72.83-21,.05,4-72.39h-40.66l-4.52,71.6-21.59,.08Z"/>
    <path class="cls-2" d="M232.79,.27h-79.26c-40.12,1.44-49.62,89.19-5.51,93.47l85.33-.29,1.65-21.26-84.1,.15c-.14,0,.02,0-.17,0-10.66-.66-10.72-8.84-10.22-15.52h52.21l1.1-21.46h-51.48c2.56-7.64,7.26-13.87,14.09-13.87h74.33L232.79,.27Z"/>
    <path class="cls-2" d="M.07,93.73H96.1c21.52,.62,26.29-56.17,.3-56.3l-70.92,.33c-4.97-2.31-6.19-16.12,2.85-16.32l85.05,.19,.91-21.63L23.05,.08C-3.92,3.05-2.6,53.44,18.2,57.52l74.26,.33c6.14,1.46,5.08,14.52-1.43,14.59H0l.07,21.29Z"/>
    <path class="cls-2" d="M388.33,93.73h96.03c21.52,.62,26.29-56.17,.3-56.3l-70.92,.33c-4.97-2.31-6.19-16.12,2.85-16.32l85.05,.19,.91-21.63-91.23,.08c-26.97,2.96-25.65,53.36-4.85,57.43l74.26,.33c6.14,1.46,5.08,14.52-1.43,14.59h-91.04l.07,21.29Z"/>
  </g>
  <g>
    <path class="cls-1" d="M1.75,125.95l4.32-24.48c1.71-.19,3.39-.18,5.04,0l-4.32,24.47c-1.73,.19-3.41,.19-5.04,0Z"/>
    <path class="cls-1" d="M33.79,101.47c1.69-.2,3.36-.2,5.01,0l-4.32,24.48c-1.46,.17-2.9,.17-4.34,0l-8.68-16.09-2.84,16.09c-1.73,.19-3.41,.19-5.04,0l4.32-24.48c1.46-.17,2.9-.17,4.32,0l8.75,15.77,2.82-15.77Z"/>
    <path class="cls-1" d="M63.23,113.03l-2.16,12.1c-1.9,.79-4.51,1.19-7.85,1.19-4.22,0-7.27-1.07-9.13-3.2-1.86-2.14-2.42-5.27-1.67-9.4,.72-4.1,2.44-7.23,5.17-9.38,2.72-2.15,6.21-3.22,10.46-3.22,2.14,0,4.03,.4,5.69,1.19-.19,1.34-.5,2.53-.94,3.56-1.56-.77-3.24-1.15-5.04-1.15-2.66,0-4.86,.76-6.59,2.27-1.73,1.51-2.86,3.76-3.38,6.73-1.03,6,1.1,9,6.41,9,.5,0,1.26-.02,2.27-.07l1.08-6.12h-2.74c0-1.15,.2-2.32,.61-3.49h7.81Z"/>
    <path class="cls-1" d="M83.26,122.46c-.05,1.15-.25,2.32-.61,3.49h-15.56l4.28-24.48h14.87c0,1.2-.22,2.36-.65,3.49h-9.79l-1.12,6.44h7.96c0,1.22-.19,2.39-.58,3.49h-7.99l-1.32,7.56h10.51Z"/>
    <path class="cls-1" d="M109.07,101.47c1.69-.2,3.36-.2,5.01,0l-4.32,24.48c-1.46,.17-2.9,.17-4.34,0l-8.68-16.09-2.84,16.09c-1.73,.19-3.41,.19-5.04,0l4.32-24.48c1.46-.17,2.9-.17,4.32,0l8.75,15.77,2.82-15.77Z"/>
    <path class="cls-1" d="M116.62,125.95l4.32-24.48c1.71-.19,3.39-.18,5.04,0l-4.32,24.47c-1.73,.19-3.41,.19-5.04,0Z"/>
    <path class="cls-1" d="M144.64,122.46c-.05,1.15-.25,2.32-.61,3.49h-15.56l4.28-24.48h14.87c0,1.2-.22,2.36-.65,3.49h-9.79l-1.12,6.44h7.96c0,1.22-.19,2.39-.58,3.49h-7.99l-1.32,7.56h10.51Z"/>
    <path class="cls-1" d="M165.44,114.18c.5,.5,.95,1.21,1.33,2.11,.38,.9,.66,1.68,.83,2.34,.17,.66,.42,1.85,.76,3.58,.34,1.73,.59,2.98,.76,3.74-1.82,.22-3.62,.22-5.4,0-.81-4.37-1.41-7.09-1.81-8.17-.39-1.08-1.15-1.62-2.27-1.62-1.19,0-2.06-.02-2.61-.07l-1.72,9.87c-1.74,.19-3.44,.18-5.08,0l4.28-24.3c2.75-.36,5.44-.54,8.09-.54,2.98,0,5.12,.61,6.43,1.82,1.31,1.21,1.75,3.05,1.31,5.53-.46,2.66-2.09,4.57-4.9,5.72Zm-7.79-1.69c1.25,.05,2.22,.07,2.92,.07,.94,0,1.85-.37,2.72-1.1,.88-.73,1.44-1.73,1.68-3.01,.22-1.3,0-2.24-.67-2.84s-1.55-.9-2.68-.9c-.65,0-1.52,.02-2.63,.07l-1.34,7.7Z"/>
    <path class="cls-1" d="M174.15,125.95l4.32-24.48c1.71-.19,3.39-.18,5.04,0l-4.32,24.47c-1.73,.19-3.41,.19-5.04,0Z"/>
    <path class="cls-1" d="M202.48,101.47c1.97,8.23,3.12,16.39,3.46,24.48-1.9,.19-3.76,.19-5.58,0-.07-2.38-.18-4.74-.32-7.09h-8.21l-2.81,7.09c-1.75,.19-3.48,.19-5.18,0,3.17-8.06,7.2-16.22,12.1-24.48,2.21-.17,4.39-.17,6.55,0Zm-9.14,13.9h6.44c-.36-3.7-.84-6.88-1.44-9.54h-.14c-1.61,2.71-3.23,5.89-4.86,9.54Z"/>
    <path class="cls-1" d="M265.98,122.71c1.8,0,3.62-.38,5.47-1.15,.12,1.13,.01,2.32-.32,3.56-1.94,.79-3.98,1.19-6.12,1.19-4.2,0-7.18-1.06-8.93-3.19-1.75-2.12-2.26-5.26-1.51-9.41,1.49-8.4,6.46-12.6,14.9-12.6,2.14,0,4.03,.4,5.69,1.19-.19,1.34-.5,2.53-.94,3.56-1.56-.77-3.24-1.15-5.04-1.15-2.62,0-4.67,.74-6.17,2.21-1.5,1.48-2.53,3.74-3.08,6.79-.53,3.05-.31,5.31,.67,6.79,.97,1.48,2.77,2.21,5.38,2.21Z"/>
    <path class="cls-1" d="M282.07,104.3c2.33-2.12,5.4-3.19,9.22-3.19s6.52,1.06,8.1,3.19,2,5.26,1.26,9.41c-.74,4.15-2.28,7.29-4.61,9.41s-5.4,3.19-9.22,3.19-6.52-1.06-8.1-3.19c-1.58-2.12-2-5.26-1.26-9.41,.74-4.15,2.28-7.29,4.61-9.41Zm5.36,18.41c4.15,0,6.77-3,7.85-9,1.03-6-.52-9-4.64-9s-6.73,3-7.81,9c-1.03,6,.5,9,4.61,9Z"/>
    <path class="cls-1" d="M324.45,101.47c1.69-.2,3.36-.2,5.01,0l-4.32,24.48c-1.46,.17-2.9,.17-4.33,0l-8.68-16.09-2.84,16.09c-1.73,.19-3.41,.19-5.04,0l4.32-24.48c1.46-.17,2.9-.17,4.32,0l8.75,15.77,2.82-15.77Z"/>
    <path class="cls-1" d="M339.02,107.59c-.12,.62-.03,1.18,.27,1.67s.73,.89,1.28,1.2c.56,.31,1.16,.65,1.83,1.02,.66,.37,1.34,.75,2.03,1.13,.69,.39,1.3,.84,1.83,1.35,.53,.52,.91,1.2,1.15,2.05,.24,.85,.26,1.83,.07,2.93-.41,2.28-1.46,4.07-3.17,5.38-1.7,1.31-4.12,1.96-7.24,1.96-2.35,0-4.38-.28-6.08-.83,.14-1.22,.46-2.38,.94-3.46,1.58,.53,3.41,.79,5.47,.79,2.9,0,4.54-1.08,4.9-3.24,.12-.72-.03-1.37-.45-1.95-.42-.58-.98-1.05-1.68-1.43-.7-.38-1.48-.8-2.34-1.26s-1.64-.95-2.33-1.47c-.7-.52-1.22-1.24-1.58-2.16s-.43-1.99-.22-3.19c.38-2.16,1.46-3.87,3.22-5.13,1.76-1.26,3.93-1.89,6.5-1.89,2.06,0,3.95,.28,5.65,.83-.14,1.2-.44,2.35-.9,3.46-1.51-.53-3.1-.79-4.75-.79-2.59,0-4.06,1-4.39,2.99Z"/>
    <path class="cls-1" d="M371.84,101.47c1.67-.2,3.34-.2,5.01,0l-2.59,14.67c-1.2,6.78-5.2,10.17-12.03,10.17-6.8,0-9.63-3.38-8.47-10.14l2.57-14.71c1.68-.18,3.39-.18,5.12,.01l-2.5,13.96c-.22,1.42-.31,2.66-.27,3.74,.04,1.08,.39,1.94,1.08,2.57,.68,.64,1.71,.95,3.1,.95,2.03,0,3.52-.62,4.46-1.85,.94-1.24,1.62-3.04,2.03-5.42l2.5-13.97Z"/>
    <path class="cls-1" d="M395.16,122.46c0,1.15-.2,2.32-.61,3.49h-15.16l4.32-24.48c1.69-.2,3.36-.2,5.01,0l-3.74,20.99h10.19Z"/>
    <path class="cls-1" d="M417.37,101.47c0,1.01-.19,2.06-.58,3.17h-7.6l-3.7,21.17c-1.73,.19-3.41,.19-5.04,0l3.7-21.17h-7.6c0-.96,.18-2.02,.54-3.17h20.27Z"/>
    <path class="cls-1" d="M422.65,104.3c2.33-2.12,5.4-3.19,9.22-3.19s6.52,1.06,8.1,3.19,2,5.26,1.26,9.41c-.74,4.15-2.28,7.29-4.61,9.41s-5.4,3.19-9.22,3.19-6.52-1.06-8.1-3.19c-1.58-2.12-2-5.26-1.26-9.41,.74-4.15,2.28-7.29,4.61-9.41Zm5.36,18.41c4.15,0,6.77-3,7.85-9,1.03-6-.52-9-4.64-9s-6.73,3-7.81,9c-1.03,6,.5,9,4.61,9Z"/>
    <path class="cls-1" d="M460.02,114.18c.5,.5,.95,1.21,1.33,2.11,.38,.9,.66,1.68,.83,2.34,.17,.66,.42,1.85,.76,3.58,.34,1.73,.59,2.98,.76,3.74-1.82,.22-3.62,.22-5.4,0-.81-4.37-1.41-7.09-1.81-8.17-.39-1.08-1.15-1.62-2.27-1.62-1.19,0-2.06-.02-2.61-.07l-1.72,9.87c-1.74,.19-3.43,.18-5.08,0l4.28-24.3c2.75-.36,5.44-.54,8.09-.54,2.98,0,5.12,.61,6.43,1.82,1.31,1.21,1.75,3.05,1.31,5.53-.46,2.66-2.09,4.57-4.9,5.72Zm-7.79-1.69c1.25,.05,2.22,.07,2.92,.07,.94,0,1.85-.37,2.72-1.1,.88-.73,1.44-1.73,1.68-3.01,.22-1.3,0-2.24-.67-2.84-.66-.6-1.55-.9-2.68-.9-.65,0-1.52,.02-2.63,.07l-1.34,7.7Z"/>
    <path class="cls-1" d="M468.73,125.95l4.32-24.48c1.7-.19,3.39-.18,5.04,0l-4.32,24.47c-1.73,.19-3.41,.19-5.04,0Z"/>
    <path class="cls-1" d="M497.06,101.47c1.97,8.23,3.12,16.39,3.46,24.48-1.9,.19-3.76,.19-5.58,0-.07-2.38-.18-4.74-.32-7.09h-8.21l-2.81,7.09c-1.75,.19-3.48,.19-5.18,0,3.17-8.06,7.2-16.22,12.1-24.48,2.21-.17,4.39-.17,6.55,0Zm-9.14,13.9h6.44c-.36-3.7-.84-6.88-1.44-9.54h-.14c-1.61,2.71-3.23,5.89-4.86,9.54Z"/>
  </g>
  <path class="cls-1" d="M237.68,121.75c3.67-3.52,4.6-7.66,4.86-9.1-1.36,0-2.71,.02-4.07,.02-.15,1.24-.54,3.07-1.67,4.93-.31,.51-.65,.97-1,1.4-.96-1.54-1.91-3.09-2.87-4.63-.25-.42-.57-.98-.91-1.64,3.07,0,6.66-3.28,6.67-6.61,0-2.08-1.39-3.47-1.51-3.59-1.73-1.67-4.68-1.95-7.36-.6-.83,.42-2.41,1.39-3.28,3.25-.99,2.12-.5,4.21-.13,5.75,.05,.21,.1,.41,.16,.6-1.02,.16-3.48,.75-5.32,2.97-.34,.41-2.78,3.44-1.8,6.76,.88,2.96,4.18,5.13,8.11,5.03,0,.01,0,.03,0,.04,.18-.02,.43-.04,.72-.08,0,0,0,0,0,0h0c1.17-.16,3.11-.55,5.25-1.6,.25,.45,.5,.89,.75,1.34,1.97,.02,3.93,.03,5.9,.05-.87-1.4-1.73-2.79-2.6-4.19,.04-.03,.07-.06,.11-.1Zm-6.59-16.02c.1-.14,1.22-1.67,2.34-1.33,.82,.25,1.42,1.42,1.19,2.81-.53,1.18-1.25,1.74-1.64,1.99-.68,.43-1.42,.61-2.29,.72-.12-.32-.16-.48-.18-.59-.1-.48-.44-2.2,.58-3.61Zm-.9,17.17c-.42,.14-1.76,.54-3.3-.02-1.36-.5-2.54-1.62-2.86-2.79-.48-1.78,.87-4.28,3.7-5.82,.06,.1,.11,.19,.17,.28h0c1.39,2.5,2.78,4.99,4.18,7.49-.67,.37-1.31,.65-1.88,.86Z"/>
</svg>